Coordinates
version=1
nRows=11
nColumns=63
inDegrees=yes

Units are S.I. units (second, meters, Newtons, ...)
If the header above contains a line with 'inDegrees', this indicates whether rotational values are in degrees (yes) or radians (no).

endheader
time	pelvis_tilt	pelvis_list	pelvis_rotation	pelvis_tx	pelvis_ty	pelvis_tz	hip_flexion_r	hip_adduction_r	hip_rotation_r	knee_angle_r	knee_angle_r_beta	ankle_angle_r	subtalar_angle_r	mtp_angle_r	hip_flexion_l	hip_adduction_l	hip_rotation_l	knee_angle_l	knee_angle_l_beta	ankle_angle_l	subtalar_angle_l	mtp_angle_l	L5_S1_Flex_Ext	L5_S1_Lat_Bending	L5_S1_axial_rotation	L4_L5_Flex_Ext	L4_L5_Lat_Bending	L4_L5_axial_rotation	L3_L4_Flex_Ext	L3_L4_Lat_Bending	L3_L4_axial_rotation	L2_L3_Flex_Ext	L2_L3_Lat_Bending	L2_L3_axial_rotation	L1_L2_Flex_Ext	L1_L2_Lat_Bending	L1_L2_axial_rotation	L1_T12_Flex_Ext	L1_T12_Lat_Bending	L1_T12_axial_rotation	Abs_r3	Abs_r2	Abs_r1	Abs_t1	Abs_t2	neck_flexion	neck_bending	neck_rotation	arm_flex_r	arm_add_r	arm_rot_r	elbow_flex_r	pro_sup_r	wrist_flex_r	wrist_dev_r	arm_flex_l	arm_add_l	arm_rot_l	elbow_flex_l	pro_sup_l	wrist_flex_l	wrist_dev_l
      3.89200000	    -62.62256023	     -4.81222575	     -1.37044575	     -0.31719619	      1.14151397	      0.04771353	    120.65913608	     -6.23253925	     -5.58571074	     86.25873829	      1.50549899	     18.47616651	    -11.96646446	      0.00000000	     93.82941757	     -7.75932678	      3.84847249	     59.52069516	      1.03883210	      8.09214785	      6.31202389	      0.00000000	     -0.10561052	      0.98712224	      0.12156282	     -0.19612930	      1.31287258	      0.12916050	     -0.17350753	      2.40008902	      0.12916050	     -0.12070227	      2.40008902	      0.10636747	     -0.09806993	      2.01293967	      0.09876979	     -0.06034585	      1.52905235	      0.09117212	     -0.75436540	     11.16652421	      0.67609596	      0.00000000	      0.00000000	      0.00000000	      0.00000000	      0.00000000	     68.56081770	     -8.37069312	      4.49861800	     42.21951090	     57.63392259	      0.00000000	      4.99998789	     65.03583115	     -8.25780622	      3.85531145	     41.55881594	     57.29112514	      0.00000000	      4.99998789
      3.90000000	    -62.69612536	     -4.72343725	     -0.83003405	     -0.31773399	      1.14184406	      0.04721261	    120.05378529	     -6.47945781	     -5.23650805	     84.42352570	      1.47346849	     18.37706450	    -11.78831800	      0.00000000	     94.51529806	     -7.18212300	      4.03140145	     61.36625795	      1.07104325	      8.47619028	      6.18520072	      0.00000000	     -0.10714744	      0.96974790	      0.02167574	     -0.19898352	      1.28976471	      0.02303047	     -0.17603253	      2.35784505	      0.02303047	     -0.12245881	      2.35784505	      0.01896627	     -0.09949712	      1.97750992	      0.01761154	     -0.06122405	      1.50213950	      0.01625680	     -0.76534347	     10.96998222	      0.12055395	      0.00000000	      0.00000000	      0.00000000	      0.00000000	      0.00000000	     68.60799774	     -8.31380378	      4.51298474	     42.38320275	     57.65792851	      0.00000000	      4.99998795	     65.14768294	     -8.30900733	      3.73103839	     41.69607432	     57.29864356	      0.00000000	      4.99998795
      3.90800000	    -62.80103357	     -4.81976666	     -0.53411693	     -0.31806823	      1.14209859	      0.04700920	    119.27976184	     -6.58644755	     -5.20719881	     82.38684970	      1.43792179	     18.76526743	    -11.64139272	      0.00000000	     95.36683816	     -6.84893257	      4.39920223	     63.39491289	      1.10644996	      8.60491429	      5.77257477	      0.00000000	     -0.10118576	      0.97572314	     -0.02931603	     -0.18791208	      1.29771178	     -0.03114828	     -0.16623809	      2.37237325	     -0.03114828	     -0.11564521	      2.37237325	     -0.02565153	     -0.09396110	      1.98969464	     -0.02381928	     -0.05781754	      1.51139515	     -0.02198702	     -0.72275978	     11.03757536	     -0.16304697	      0.00000000	      0.00000000	      0.00000000	      0.00000000	      0.00000000	     68.61116788	     -8.27251349	      4.41605143	     42.46947413	     57.69635600	      0.00000000	      4.99998810	     65.07498095	     -8.30448915	      3.58018209	     42.04647782	     57.32556336	      0.00000000	      4.99998810
      3.91700000	    -62.88257712	     -4.94346956	     -0.26596793	     -0.31841055	      1.14246621	      0.04683354	    118.41796631	     -6.68625176	     -5.24447137	     80.27155430	      1.40100292	     18.97569786	    -11.35427751	      0.00000000	     96.22738761	     -6.54088027	      4.72704139	     65.40799273	      1.14158483	      8.58328127	      5.03462813	      0.00000000	     -0.10304681	      0.98456174	     -0.08209410	     -0.19136824	      1.30946711	     -0.08722499	     -0.16929561	      2.39386341	     -0.08722499	     -0.11777220	      2.39386341	     -0.07183234	     -0.09568927	      2.00771829	     -0.06670146	     -0.05888095	      1.52508613	     -0.06157058	     -0.73605309	     11.13755928	     -0.45658278	      0.00000000	      0.00000000	      0.00000000	      0.00000000	      0.00000000	     68.65605607	     -8.18444852	      4.27071165	     42.57050992	     57.74491935	      0.00000000	      4.99998829	     65.04477159	     -8.30341729	      3.39675706	     42.35423807	     57.36471184	      0.00000000	      4.99998829
      3.92500000	    -62.94611620	     -5.04027272	      0.03526533	     -0.31871844	      1.14280544	      0.04661782	    117.53792524	     -6.84686245	     -5.27446048	     78.13424405	      1.36369982	     18.96075699	    -10.92235933	      0.00000000	     97.07016443	     -6.19119127	      4.95405272	     67.39021864	      1.17618120	      8.34980509	      3.79254584	      0.00000000	     -0.10337820	      0.99135971	     -0.14150418	     -0.19198366	      1.31850842	     -0.15034819	     -0.16984005	      2.41039200	     -0.15034819	     -0.11815095	      2.41039200	     -0.12381615	     -0.09599700	      2.02158072	     -0.11497214	     -0.05907031	      1.53561619	     -0.10612813	     -0.73842017	     11.21445933	     -0.78700377	      0.00000000	      0.00000000	      0.00000000	      0.00000000	      0.00000000	     68.69606038	     -8.07387977	      4.10958403	     42.67575954	     57.84730177	      0.00000000	      4.99998863	     65.02520848	     -8.30126995	      3.14796548	     42.54880095	     57.45032085	      0.00000000	      4.99998863
      3.93300000	    -62.94137698	     -4.85907474	      0.59713718	     -0.31886853	      1.14288460	      0.04629253	    116.73958564	     -7.09245325	     -4.81004048	     76.21637289	      1.33022665	     18.93436085	    -10.34671847	      0.00000000	     97.77757636	     -5.60706064	      4.96619294	     69.34446952	      1.21028931	      8.50783729	      3.24392739	      0.00000000	     -0.10380106	      0.95726071	     -0.25262307	     -0.19276894	      1.27315675	     -0.26841201	     -0.17053476	      2.32748370	     -0.26841201	     -0.11863423	      2.32748370	     -0.22104519	     -0.09638966	      1.95204605	     -0.20525625	     -0.05931192	      1.48279684	     -0.18946730	     -0.74144057	     10.82872464	     -1.40501373	      0.00000000	      0.00000000	      0.00000000	      0.00000000	      0.00000000	     68.56843304	     -7.97073287	      4.06632941	     42.88751123	     57.42225337	      0.00000000	      4.99998934	     65.05370217	     -8.34778155	      3.11889715	     42.73401725	     57.03980406	      0.00000000	      4.99998934
      3.94200000	    -62.94546931	     -4.84671628	      0.80631579	     -0.31906334	      1.14302869	      0.04634599	    115.84610785	     -7.06842123	     -4.71114362	     74.14391185	      1.29405538	     18.35444857	    -10.36803679	      0.00000000	     98.60120464	     -5.38300138	      5.10339308	     71.39826714	      1.24613484	      8.36534465	      2.49355370	      0.00000000	     -0.10406221	      0.94588937	     -0.29633711	     -0.19325392	      1.25803286	     -0.31485818	     -0.17096380	      2.29983541	     -0.31485818	     -0.11893270	      2.29983541	     -0.25929497	     -0.09663217	      1.92885760	     -0.24077390	     -0.05946115	      1.46518263	     -0.22225283	     -0.74330594	     10.70008973	     -1.64813811	      0.00000000	      0.00000000	      0.00000000	      0.00000000	      0.00000000	     68.60025137	     -7.85205105	      3.90847189	     42.71649299	     57.15075427	      0.00000000	      4.99998980	     65.15683003	     -8.37850804	      3.22691487	     42.67657205	     56.80484081	      0.00000000	      4.99998980
      3.95000000	    -62.94439475	     -4.87387814	      0.99472975	     -0.31921231	      1.14313902	      0.04642965	    114.92461361	     -7.09575138	     -4.78794672	     72.08698884	      1.25815530	     17.67753032	    -10.46136108	      0.00000000	     99.40942282	     -5.14232807	      5.26061858	     73.38993769	      1.28089605	      8.20425955	      1.35737805	      0.00000000	     -0.10409454	      0.93772197	     -0.33773610	     -0.19331397	      1.24717022	     -0.35884461	     -0.17101692	      2.27997719	     -0.35884461	     -0.11896965	      2.27997719	     -0.29551909	     -0.09666219	      1.91220264	     -0.27441058	     -0.05947962	      1.45253133	     -0.25330208	     -0.74353688	     10.60769844	     -1.87838689	      0.00000000	      0.00000000	      0.00000000	      0.00000000	      0.00000000	     68.54498977	     -7.80467836	      3.85490728	     42.73487034	     57.03990413	      0.00000000	      4.99999030	     65.26443133	     -8.42095821	      3.44471160	     42.66343301	     56.72880949	      0.00000000	      4.99999030
      3.95800000	    -62.89308139	     -4.76961191	      1.34629110	     -0.31925040	      1.14314187	      0.04626509	    114.04644975	     -7.18956455	     -4.54457343	     70.19465156	      1.22512779	     16.95115624	    -10.49803492	      0.00000000	    100.11130515	     -4.75139723	      5.31102185	     75.32792961	      1.31472039	      8.32140713	      0.84981196	      0.00000000	     -0.10423328	      0.91497286	     -0.40597007	     -0.19357163	      1.21691390	     -0.43134320	     -0.17124486	      2.22466501	     -0.43134320	     -0.11912822	      2.22466501	     -0.35522381	     -0.09679102	      1.86581266	     -0.32985068	     -0.05955890	      1.41729296	     -0.30447755	     -0.74452790	     10.35035599	     -2.25788372	      0.00000000	      0.00000000	      0.00000000	      0.00000000	      0.00000000	     68.48749110	     -7.77787762	      3.82446393	     42.69187324	     56.89673363	      0.00000000	      4.99999065	     65.33643071	     -8.42842226	      3.59756808	     42.57030260	     56.60939862	      0.00000000	      4.99999065
      3.96700000	    -62.84876932	     -4.74786738	      1.54066153	     -0.31928044	      1.14310727	      0.04630943	    113.15611036	     -7.19512399	     -4.53450859	     68.32510488	      1.19249804	     15.92377046	    -10.73121208	      0.00000000	    100.85577115	     -4.50643479	      5.45677458	     77.27628764	      1.34872565	      8.49489113	      0.31528327	      0.00000000	     -0.10406780	      0.90166923	     -0.44451691	     -0.19326432	      1.19922008	     -0.47229922	     -0.17097300	      2.19231857	     -0.47229922	     -0.11893909	      2.19231857	     -0.38895230	     -0.09663736	      1.83868390	     -0.36116999	     -0.05946434	      1.39668564	     -0.33338768	     -0.74334592	     10.19986270	     -2.47226970	      0.00000000	      0.00000000	      0.00000000	      0.00000000	      0.00000000	     68.41101252	     -7.79588730	      3.79607005	     42.64034250	     56.90223701	      0.00000000	      4.99999089	     65.44237503	     -8.45039109	      3.87625870	     42.42347375	     56.65093017	      0.00000000	      4.99999089
      3.97500000	    -62.78238164	     -4.63328667	      1.97067946	     -0.31925017	      1.14297764	      0.04612308	    112.32106419	     -7.34637617	     -4.21806662	     66.65052862	      1.16327117	     15.10436463	    -10.83053904	      0.00000000	    101.53673591	     -4.03760773	      5.50466886	     79.13993538	      1.38125244	      8.87409565	      0.10068992	      0.00000000	     -0.10384783	      0.87732329	     -0.53143939	     -0.19285581	      1.16683997	     -0.56465436	     -0.17061161	      2.13312384	     -0.56465436	     -0.11868769	      2.13312384	     -0.46500947	     -0.09643310	      1.78903765	     -0.43179451	     -0.05933865	      1.35897377	     -0.39857955	     -0.74177469	      9.92445650	     -2.95570648	      0.00000000	      0.00000000	      0.00000000	      0.00000000	      0.00000000	     68.29498461	     -7.75912908	      3.76653187	     42.64678055	     56.84027815	      0.00000000	      4.99999104	     65.52991701	     -8.48353502	      4.01919951	     42.27997285	     56.61039466	      0.00000000	      4.99999104
